<!-- icon666.com - MILLIONS vector ICONS FREE --><svg id="Circular" viewBox="0 0 64 64" xmlns="http://www.w3.org/2000/svg" xmlns:xlink="http://www.w3.org/1999/xlink"><linearGradient id="linear-gradient" gradientUnits="userSpaceOnUse" x2="64" y1="32" y2="32"><stop offset="0" stop-color="#ffffd5"></stop><stop offset="1" stop-color="#ffe59a"></stop></linearGradient><linearGradient id="linear-gradient-2" gradientUnits="userSpaceOnUse" x1="11.89" x2="51.89" y1="30.968" y2="30.968"><stop offset="0" stop-color="#ffde00"></stop><stop offset="1" stop-color="#fd5900"></stop></linearGradient><circle cx="32" cy="32" fill="url(#linear-gradient)" r="32"></circle><path d="m49.16616 36.14732-7.47106 1.99989-6.04966-22.58454a.71574.71574 0 0 1 .50708-.87141l6.09256-1.6356a.71786.71786 0 0 1 .87137.50712zm.37142 1.37849-7.47106 1.99989.65 2.41416 7.47101-1.99986zm2.32842 8.671-1.3142-4.87833-7.471 1.99989 1.3142 4.88547a.70822.70822 0 0 0 .87136.5l6.09257-1.62851a.71994.71994 0 0 0 .50707-.87853zm-24.27016 1.99273a.71636.71636 0 0 0 .71425.71425h4.99974a.71636.71636 0 0 0 .71425-.71425v-5.05689h-6.42824zm0-6.48539h6.42824v-2.49272h-6.42824zm5.714-28.02h-4.99975a.71636.71636 0 0 0 -.71425.71425v23.38453h6.42824v-23.38449a.71636.71636 0 0 0 -.71425-.71425zm-7.85674 0h-3.6855a.71633.71633 0 0 0 -.71425.71425v23.38453h5.114v-23.38449a.71636.71636 0 0 0 -.71426-.71425zm-4.39975 28.02h5.114v-2.49272h-5.114zm0 6.48539a.71633.71633 0 0 0 .71425.71425h3.6855a.71636.71636 0 0 0 .71425-.71425v-5.05689h-5.114zm-9.16382 0a.71636.71636 0 0 0 .71425.71425h6.30682a.71636.71636 0 0 0 .71425-.71425v-5.05689h-7.73533zm0-6.48539h7.73532v-2.49272h-7.73533zm7.02107-28.02h-6.30683a.71636.71636 0 0 0 -.71425.71425v23.38453h7.73532v-23.38449a.71636.71636 0 0 0 -.71425-.71425z" fill="url(#linear-gradient-2)"></path></svg>