<!-- icon666.com - MILLIONS vector ICONS FREE --><svg id="Layer_3" viewBox="0 0 32 32" xmlns="http://www.w3.org/2000/svg" xmlns:xlink="http://www.w3.org/1999/xlink" data-name="Layer 3"><linearGradient id="Orange_Yellow" gradientUnits="userSpaceOnUse" x1="-1.542" x2="21.093" y1="30.197" y2="1.009"><stop offset="0" stop-color="#fff33b"></stop><stop offset=".04" stop-color="#fee72e"></stop><stop offset=".117" stop-color="#fed51b"></stop><stop offset=".196" stop-color="#fdca10"></stop><stop offset=".281" stop-color="#fdc70c"></stop><stop offset=".669" stop-color="#f3903f"></stop><stop offset=".888" stop-color="#ed683c"></stop><stop offset="1" stop-color="#e93e3a"></stop></linearGradient><linearGradient id="Orange_Yellow-2" x1="8.206" x2="30.842" xlink:href="#Orange_Yellow" y1="37.758" y2="8.569"></linearGradient><path d="m16 14.1a6.522 6.522 0 1 0 -6.522-6.523 6.529 6.529 0 0 0 6.522 6.523zm0-11.045a4.522 4.522 0 1 1 -4.522 4.522 4.526 4.526 0 0 1 4.522-4.522z" fill="url(#Orange_Yellow)"></path><path d="m16 16.671c-6.641 0-12.044 5.979-12.044 13.329a1 1 0 0 0 2 0c0-6.247 4.505-11.329 10.044-11.329s10.044 5.082 10.044 11.329a1 1 0 0 0 2 0c0-7.35-5.403-13.329-12.044-13.329z" fill="url(#Orange_Yellow-2)"></path></svg>