
<svg xmlns="http://www.w3.org/2000/svg"
     class="svg-snoweb svg-theme-light"
     x="0"
     y="0"
     width="100%"
     height="100%"
     viewBox="0 0 100 100"
     preserveAspectRatio="xMidYMid meet"
>
<defs>
    <style>
        
            
            
            
        

        .svg-fill-primary {
            fill: #ffffff;
        }

        .svg-fill-secondary {
            fill: #ffffff;
        }

        .svg-fill-tertiary {
            fill: #ffffff;
        }

        .svg-stroke-primary {
            stroke: #ffffff;
        }

        .svg-stroke-secondary {
            stroke: #ffffff;
        }

        .svg-stroke-tertiary {
            stroke: #ffffff;
        }
    </style>
</defs>
    <path d="M22.1,22.1a4,4,0,0,0-4,4V73.9a4,4,0,0,0,8,0V26.1A4,4,0,0,0,22.1,22.1Zm41,37a4,4,0,0,0,5.7,5.7l11.9-12a3.9,3.9,0,0,0,0-5.6l-11.9-12a4,4,0,0,0-5.7,5.7L68.3,46H38a4,4,0,0,0,0,8H68.3Z"
          class="svg-fill-primary" fill-rule="evenodd"/>
</svg>